<svg xmlns="http://www.w3.org/2000/svg" xmlns:xlink="http://www.w3.org/1999/xlink" style="isolation:isolate" width="992.88" height="616" viewBox="0 0 744.66 462"><defs><clipPath id="_clipPath_xgZQrs6WL5tyFKM2cje3SnPRQluQouYB"><rect width="744.66" height="462"/></clipPath></defs><g clip-path="url(#_clipPath_xgZQrs6WL5tyFKM2cje3SnPRQluQouYB)"><g><ellipse cx="332.04" cy="343.96" fill="#000" rx="63.11" ry="13.95" vector-effect="non-scaling-stroke"/><mask id="_mask_SQYYeDrC11lo1eILk5kBuMgVjHGudWZi" width="400%" height="400%" x="-200%" y="-200%"><rect width="400%" height="400%" x="-200%" y="-200%" style="fill:#fff"/><line x1="332.04" x2="296.59" y1="343.96" y2="454.91" fill="#000" stroke="none"/></mask><line x1="332.04" x2="296.59" y1="343.96" y2="454.91" stroke="#000" stroke-linecap="round" stroke-linejoin="miter" stroke-miterlimit="10" stroke-width="8" mask="url(#_mask_SQYYeDrC11lo1eILk5kBuMgVjHGudWZi)" vector-effect="non-scaling-stroke"/><mask id="_mask_FsBcTRZGcd1KCoPoSQIxgCqEbqlGo32o" width="400%" height="400%" x="-200%" y="-200%"><rect width="400%" height="400%" x="-200%" y="-200%" style="fill:#fff"/><line x1="332.04" x2="367.49" y1="343.96" y2="454.91" fill="#000" stroke="none"/></mask><line x1="332.04" x2="367.49" y1="343.96" y2="454.91" stroke="#000" stroke-linecap="round" stroke-linejoin="miter" stroke-miterlimit="10" stroke-width="8" mask="url(#_mask_FsBcTRZGcd1KCoPoSQIxgCqEbqlGo32o)" vector-effect="non-scaling-stroke"/><mask id="_mask_gF35XOu8zuWlfypYCF5XdTj2jlrp7s5O" width="400%" height="400%" x="-200%" y="-200%"><rect width="400%" height="400%" x="-200%" y="-200%" style="fill:#fff"/><line x1="308.23" x2="347.75" y1="418.48" y2="393.14" fill="#000" stroke="none"/></mask><line x1="308.23" x2="347.75" y1="418.48" y2="393.14" stroke="#000" stroke-linecap="round" stroke-linejoin="miter" stroke-miterlimit="10" stroke-width="4" mask="url(#_mask_gF35XOu8zuWlfypYCF5XdTj2jlrp7s5O)" vector-effect="non-scaling-stroke"/><mask id="_mask_rmI3lbT0hLcycoVRtLz74Jybq1E8aOrk" width="400%" height="400%" x="-200%" y="-200%"><rect width="400%" height="400%" x="-200%" y="-200%" style="fill:#fff"/><line x1="316.17" x2="355.7" y1="393.14" y2="418.48" fill="#000" stroke="none"/></mask><line x1="316.17" x2="355.7" y1="393.14" y2="418.48" stroke="#000" stroke-linecap="round" stroke-linejoin="miter" stroke-miterlimit="10" stroke-width="4" mask="url(#_mask_rmI3lbT0hLcycoVRtLz74Jybq1E8aOrk)" vector-effect="non-scaling-stroke"/><mask id="_mask_fRoQjM9Na9esUH0srcoMmXCTFOwJ5ALD" width="400%" height="400%" x="-200%" y="-200%"><rect width="400%" height="400%" x="-200%" y="-200%" style="fill:#fff"/><path fill="#000" stroke="none" d="M 394.15 223.86 C 393.99 228.78 394.06 246.01 393.25 253.38"/></mask><path fill="none" d="M 394.15 223.86 C 393.99 228.78 394.06 246.01 393.25 253.38"/><path fill="none" stroke="#1F161E" stroke-linecap="round" stroke-linejoin="miter" stroke-miterlimit="10" stroke-width="2" d="M 394.15 223.86 C 393.99 228.78 394.06 246.01 393.25 253.38" mask="url(#_mask_fRoQjM9Na9esUH0srcoMmXCTFOwJ5ALD)" vector-effect="non-scaling-stroke"/><path d="M 184.79 -0.37 L 184.79 -0.37 C 188.284 -0.37 191.12 2.466 191.12 5.96 L 191.12 27.81 C 191.12 31.304 188.284 34.14 184.79 34.14 L 184.79 34.14 C 181.296 34.14 178.46 31.304 178.46 27.81 L 178.46 5.96 C 178.46 2.466 181.296 -0.37 184.79 -0.37 Z" style="stroke:none;fill:#000;stroke-miterlimit:10"/><circle cx="184.79" cy="58.17" r="12.7" fill="#FBDC8E" vector-effect="non-scaling-stroke"/><path fill="#FBDC8E" d="M 609.37 209 L 615.37 209 C 616.682 208.995 617.745 207.932 617.75 206.62 L 617.75 169.74 C 617.752 169.109 617.5 168.503 617.05 168.06 L 609.47 160.48 C 609.025 160.032 608.421 159.78 607.79 159.78 L 585.4 159.78 C 584.088 159.785 583.025 160.848 583.02 162.16 L 583.02 165.72"/><path fill="#000" d="M 88.06 297 C 107.06 300.6 103.67 414 67.2 407.14 C 32.76 400.6 64.88 292.59 88.06 297 Z"/><path fill="#FBDC8E" d="M 4.64 311 C 19.76 302.44 83.05 382.08 54.1 398.46 C 26.75 414 -13.77 321.44 4.64 311 Z"/><path fill="#969696" d="M 81.69 461.92 L 43.51 461.92 C 40.326 461.919 37.652 459.525 37.3 456.36 L 32.48 413.08 C 32.269 411.304 32.827 409.523 34.013 408.186 C 35.2 406.848 36.902 406.082 38.69 406.08 L 86.31 406.08 C 88.084 406.081 89.773 406.836 90.958 408.156 C 92.142 409.476 92.71 411.237 92.52 413 L 87.91 456.28 C 87.592 459.478 84.904 461.915 81.69 461.92 L 81.69 461.92 Z"/><path fill="#AB8DE5" d="M 98.79 252.84 C 113.26 257.04 102.17 344.57 74.46 336.51 C 48.3 328.91 81.18 247.72 98.79 252.84 Z"/><path fill="#FBDC8E" d="M 122.65 322.48 C 132.65 331.1 91.97 397.04 72.75 380.48 C 54.6 364.91 110.44 312 122.65 322.48 Z"/><path fill="#78E5E1" d="M 62.7 261.94 C 84.36 261.94 104.19 400.24 62.7 400.24 C 23.52 400.24 36.33 261.94 62.7 261.94 Z"/><path d="M 24.51 396.72 L 100.71 396.72 C 102.945 396.72 104.76 398.535 104.76 400.77 L 104.76 408.15 C 104.76 410.385 102.945 412.2 100.71 412.2 L 24.51 412.2 C 22.275 412.2 20.46 410.385 20.46 408.15 L 20.46 400.77 C 20.46 398.535 22.275 396.72 24.51 396.72 Z" style="stroke:none;fill:#d8d8d8;stroke-miterlimit:10"/><path fill="#D8D8D8" d="M 599.29 165.72 L 577.29 165.72 C 576.577 165.72 575.894 166.004 575.391 166.508 C 574.889 167.013 574.607 167.697 574.61 168.41 L 574.61 212.21 C 574.61 213.692 575.808 214.895 577.29 214.9 L 606.68 214.9 C 608.162 214.895 609.36 213.692 609.36 212.21 L 609.36 175.81 C 609.363 175.098 609.082 174.415 608.58 173.91 L 601.18 166.51 C 600.679 166.007 600 165.723 599.29 165.72 Z"/><path fill="#969696" d="M 609.37 174.76 L 601.9 174.76 C 601.072 174.76 600.4 174.088 600.4 173.26 L 600.4 165.72"/><path fill="#64CCC4" d="M 617.78 168.83 L 610.31 168.83 C 609.478 168.825 608.805 168.152 608.8 167.32 L 608.8 159.78"/><path d="M 523.08 115.65 L 574.64 115.65 C 576.312 115.65 577.67 117.008 577.67 118.68 L 577.67 135.52 C 577.67 137.192 576.312 138.55 574.64 138.55 L 523.08 138.55 C 521.408 138.55 520.05 137.192 520.05 135.52 L 520.05 118.68 C 520.05 117.008 521.408 115.65 523.08 115.65 Z" style="stroke:none;fill:#78e5e1;stroke-miterlimit:10"/><path fill="#78E5E1" d="M 548.85 154.25 L 555.79 133.23 L 541.91 133.23 L 548.85 154.25 L 548.85 154.25 Z"/><path fill="#FFF" d="M 535.1 121.75 L 529.28 131.82 L 540.91 131.82 L 535.1 121.75 L 535.1 121.75 Z"/><path fill="#FFF" d="M 562.61 131.82 L 568.43 121.75 L 556.79 121.75 L 562.61 131.82 L 562.61 131.82 Z"/><circle cx="548.85" cy="126.79" r="4.37" fill="#FFF" vector-effect="non-scaling-stroke"/><path d="M 510.52 67.12 L 544.36 67.12 C 545.823 67.12 547.01 68.307 547.01 69.77 L 547.01 90.23 C 547.01 91.693 545.823 92.88 544.36 92.88 L 510.52 92.88 C 509.057 92.88 507.87 91.693 507.87 90.23 L 507.87 69.77 C 507.87 68.307 509.057 67.12 510.52 67.12 Z" style="stroke:none;fill:#d8d8d8;stroke-miterlimit:10"/><mask id="_mask_8QikEj1ORr5D95hcliF0H6wFQgd68puR" width="400%" height="400%" x="-200%" y="-200%"><rect width="400%" height="400%" x="-200%" y="-200%" style="fill:#fff"/><line x1="509.1" x2="527.44" y1="67.93" y2="80" fill="#000" stroke="none"/></mask><line x1="509.1" x2="527.44" y1="67.93" y2="80" stroke="#969696" stroke-linecap="round" stroke-linejoin="round" stroke-miterlimit="4" stroke-width="1.64" mask="url(#_mask_8QikEj1ORr5D95hcliF0H6wFQgd68puR)" vector-effect="non-scaling-stroke"/><mask id="_mask_mu3zcTmphplPiVAaBcZ8WV1EmS9hubFM" width="400%" height="400%" x="-200%" y="-200%"><rect width="400%" height="400%" x="-200%" y="-200%" style="fill:#fff"/><line x1="547.01" x2="527.44" y1="67.12" y2="80" fill="#000" stroke="none"/></mask><line x1="547.01" x2="527.44" y1="67.12" y2="80" stroke="#969696" stroke-linecap="round" stroke-linejoin="round" stroke-miterlimit="4" stroke-width="1.64" mask="url(#_mask_mu3zcTmphplPiVAaBcZ8WV1EmS9hubFM)" vector-effect="non-scaling-stroke"/><circle cx="547.01" cy="67.12" r="5.6" fill="#FBDC8E" vector-effect="non-scaling-stroke"/><g clip-path="url(#_clipPath_H9BpLeswYQoXIn7pxSWx9Qmflb7hjZ7Z)"><text transform="matrix(1,0,0,1,545.39,69.28)" style="font-family:'Open Sans';font-weight:700;font-size:7.3px;font-style:normal;font-variant-ligatures:none;fill:[Object GRGBColor];stroke:none">1</text></g><defs><clipPath id="_clipPath_H9BpLeswYQoXIn7pxSWx9Qmflb7hjZ7Z"><rect width="7" height="9.941" x="0" y="0" transform="matrix(1,0,0,1,545.39,61.477)"/></clipPath></defs><path d="M 597.43 82.83 L 743.43 82.83 C 744.109 82.83 744.66 83.381 744.66 84.06 L 744.66 84.82 C 744.66 85.499 744.109 86.05 743.43 86.05 L 597.43 86.05 C 596.751 86.05 596.2 85.499 596.2 84.82 L 596.2 84.06 C 596.2 83.381 596.751 82.83 597.43 82.83 Z" style="stroke:none;fill:#d8d8d8;stroke-miterlimit:10"/><path d="M 650.23 18.89 L 659.1 18.89 C 660.513 18.89 661.66 20.037 661.66 21.45 L 661.66 80.27 C 661.66 81.683 660.513 82.83 659.1 82.83 L 650.23 82.83 C 648.817 82.83 647.67 81.683 647.67 80.27 L 647.67 21.45 C 647.67 20.037 648.817 18.89 650.23 18.89 Z" style="stroke:none;fill:#969696;stroke-miterlimit:10"/><path d="M 663.79 33.88 L 666.53 33.88 C 667.706 33.88 668.66 34.834 668.66 36.01 L 668.66 80.7 C 668.66 81.876 667.706 82.83 666.53 82.83 L 663.79 82.83 C 662.614 82.83 661.66 81.876 661.66 80.7 L 661.66 36.01 C 661.66 34.834 662.614 33.88 663.79 33.88 Z" style="stroke:none;fill:#d8d8d8;stroke-miterlimit:10"/><path d="M 670.72 33.88 L 673.6 33.88 C 674.737 33.88 675.66 34.803 675.66 35.94 L 675.66 80.77 C 675.66 81.907 674.737 82.83 673.6 82.83 L 670.72 82.83 C 669.583 82.83 668.66 81.907 668.66 80.77 L 668.66 35.94 C 668.66 34.803 669.583 33.88 670.72 33.88 Z" style="stroke:none;fill:#969696;stroke-miterlimit:10"/><path d="M 676.312 38.466 L 678.675 37.381 C 679.779 36.874 681.086 37.359 681.592 38.462 L 700.179 78.947 C 700.686 80.051 700.201 81.358 699.098 81.864 L 696.735 82.949 C 695.631 83.456 694.324 82.971 693.818 81.868 L 675.231 41.383 C 674.724 40.279 675.209 38.972 676.312 38.466 Z" style="stroke:none;fill:#d8d8d8;stroke-miterlimit:10"/><circle cx="654.66" cy="62.74" r="3.91" fill="#D8D8D8" vector-effect="non-scaling-stroke"/><path d="M 651.12 68.99 L 658.2 68.99 C 658.719 68.99 659.14 69.411 659.14 69.93 L 659.14 69.93 C 659.14 70.449 658.719 70.87 658.2 70.87 L 651.12 70.87 C 650.601 70.87 650.18 70.449 650.18 69.93 L 650.18 69.93 C 650.18 69.411 650.601 68.99 651.12 68.99 Z" style="stroke:none;fill:#d8d8d8;stroke-miterlimit:10"/><path d="M 651.12 73.8 L 658.2 73.8 C 658.719 73.8 659.14 74.221 659.14 74.74 L 659.14 74.74 C 659.14 75.259 658.719 75.68 658.2 75.68 L 651.12 75.68 C 650.601 75.68 650.18 75.259 650.18 74.74 L 650.18 74.74 C 650.18 74.221 650.601 73.8 651.12 73.8 Z" style="stroke:none;fill:#d8d8d8;stroke-miterlimit:10"/><path d="M 579.48 170.24 L 586.56 170.24 C 587.079 170.24 587.5 170.661 587.5 171.18 L 587.5 171.18 C 587.5 171.699 587.079 172.12 586.56 172.12 L 579.48 172.12 C 578.961 172.12 578.54 171.699 578.54 171.18 L 578.54 171.18 C 578.54 170.661 578.961 170.24 579.48 170.24 Z" style="stroke:none;fill:#969696;stroke-miterlimit:10"/><path d="M 579.48 174.76 L 586.56 174.76 C 587.079 174.76 587.5 175.181 587.5 175.7 L 587.5 175.7 C 587.5 176.219 587.079 176.64 586.56 176.64 L 579.48 176.64 C 578.961 176.64 578.54 176.219 578.54 175.7 L 578.54 175.7 C 578.54 175.181 578.961 174.76 579.48 174.76 Z" style="stroke:none;fill:#969696;stroke-miterlimit:10"/><path d="M 579.07 182.49 L 604.92 182.49 C 605.439 182.49 605.86 182.911 605.86 183.43 L 605.86 183.43 C 605.86 183.949 605.439 184.37 604.92 184.37 L 579.07 184.37 C 578.551 184.37 578.13 183.949 578.13 183.43 L 578.13 183.43 C 578.13 182.911 578.551 182.49 579.07 182.49 Z" style="stroke:none;fill:#969696;stroke-miterlimit:10"/><path d="M 579.07 186.93 L 604.92 186.93 C 605.439 186.93 605.86 187.351 605.86 187.87 L 605.86 187.87 C 605.86 188.389 605.439 188.81 604.92 188.81 L 579.07 188.81 C 578.551 188.81 578.13 188.389 578.13 187.87 L 578.13 187.87 C 578.13 187.351 578.551 186.93 579.07 186.93 Z" style="stroke:none;fill:#969696;stroke-miterlimit:10"/><path d="M 579.07 191.37 L 604.92 191.37 C 605.439 191.37 605.86 191.791 605.86 192.31 L 605.86 192.31 C 605.86 192.829 605.439 193.25 604.92 193.25 L 579.07 193.25 C 578.551 193.25 578.13 192.829 578.13 192.31 L 578.13 192.31 C 578.13 191.791 578.551 191.37 579.07 191.37 Z" style="stroke:none;fill:#969696;stroke-miterlimit:10"/><path d="M 665.16 40.54 L 665.16 40.54 C 665.563 40.54 665.89 40.867 665.89 41.27 L 665.89 75.43 C 665.89 75.833 665.563 76.16 665.16 76.16 L 665.16 76.16 C 664.757 76.16 664.43 75.833 664.43 75.43 L 664.43 41.27 C 664.43 40.867 664.757 40.54 665.16 40.54 Z" style="stroke:none;fill:#969696;stroke-miterlimit:10"/><path d="M 628.92 84.44 L 635.18 84.44 C 636.554 84.44 637.67 85.556 637.67 86.93 L 637.67 86.93 C 637.67 88.304 636.554 89.42 635.18 89.42 L 628.92 89.42 C 627.546 89.42 626.43 88.304 626.43 86.93 L 626.43 86.93 C 626.43 85.556 627.546 84.44 628.92 84.44 Z" style="stroke:none;fill:#d8d8d8;stroke-miterlimit:10"/><path d="M 705.68 84.44 L 711.94 84.44 C 713.314 84.44 714.43 85.556 714.43 86.93 L 714.43 86.93 C 714.43 88.304 713.314 89.42 711.94 89.42 L 705.68 89.42 C 704.306 89.42 703.19 88.304 703.19 86.93 L 703.19 86.93 C 703.19 85.556 704.306 84.44 705.68 84.44 Z" style="stroke:none;fill:#d8d8d8;stroke-miterlimit:10"/><path d="M 439.14 89.31 L 475.65 89.31 C 482.273 89.31 487.65 94.687 487.65 101.31 L 487.65 119.12 C 487.65 125.743 482.273 131.12 475.65 131.12 L 439.14 131.12 C 432.517 131.12 427.14 125.743 427.14 119.12 L 427.14 101.31 C 427.14 94.687 432.517 89.31 439.14 89.31 Z" style="stroke:none;fill:#d8d8d8;stroke-miterlimit:10"/><rect width="9.1" height="28.35" x="439.66" y="96.04" fill="#AB8DE5" transform="matrix(1,0,0,1,0,0)"/><rect width="9.1" height="9.5" x="452.85" y="114.9" fill="#AB8DE5" transform="matrix(1,0,0,1,0,0)"/><rect width="9.1" height="17.49" x="466.03" y="106.9" fill="#AB8DE5" transform="matrix(1,0,0,1,0,0)"/><path fill="#1F161E" d="M 485.19 441.68 C 485.19 444.05 483.8 459 486.57 460.38 C 489.34 461.76 519.79 462.6 521.17 461.21 C 522.55 459.82 523.38 456.92 522.17 456.09 C 520.96 455.26 509.17 452.91 507.57 451.8 C 505.97 450.69 503.76 444.8 504.57 441.68"/><path fill="#78E5E1" d="M 394.15 246.25 L 411.29 240.1 C 410.55 208.83 403.24 138.96 392.86 128.57 C 390.42 126.14 342.16 121.9 333.55 121.9 C 282.17 121.9 266.93 127.76 263.06 131.64 C 251.06 143.64 247.32 199.24 247.32 218.71 C 247.32 238.18 302.32 248.28 302.32 248.28 L 366.79 252.71 C 366.79 252.71 380.93 254.17 393.16 254.89 C 393.43 251.14 394.15 246.25 394.15 246.25 Z"/><path fill="#1F161E" d="M 445.22 264.38 C 449.91 262.99 496.55 255.38 506.71 265.38 C 516.87 275.38 548.85 418.75 548.85 422.05 L 523.1 422.05 L 488.34 347.24"/><path fill="#55B79D" d="M 275.41 251.63 C 274.24 257.48 267.21 263.76 267.21 295.63 C 267.21 339.7 303.31 340.63 316.27 340.63 C 356.65 340.63 421.98 328.63 426.39 326.43 C 429.32 331.33 483.25 441.43 483.5 443.89 L 508.33 443.89 C 508.33 443.89 492.94 279.17 465.17 260.49 C 456.15 254.49 296.12 248.07 275.41 251.63 Z"/><path fill="#F8CDBA" d="M 420.81 219.41 C 414.29 219.41 408.91 220.96 394.15 223.86 L 393.38 252.1 C 407.38 246.46 410.63 238.62 414.69 238.62 C 424.83 238.62 430.13 243.85 436.12 243.85 C 440.3 243.85 447.82 240.57 447.82 236.11 C 447.82 226.77 428.89 219.41 420.81 219.41 Z"/><path fill="#1F161E" d="M 524.56 420.07 C 524.56 422.45 523.17 437.39 525.94 438.78 C 528.71 440.17 559.16 440.99 560.54 439.61 C 561.92 438.23 562.75 435.32 561.54 434.49 C 560.33 433.66 548.54 431.3 546.94 430.19 C 545.34 429.08 543.13 423.19 543.94 420.07"/><path fill="#F8CDBA" d="M 342.64 128.55 C 342.64 132.32 320.75 132.43 320.75 128.55 L 320.75 97.89 L 342.64 97.89 L 342.64 128.55 Z"/><path fill="#1F161E" d="M 335.51 108 C 333.51 108 320.75 113.64 320.75 116.79 L 320.75 100.15 C 323.93 100.15 335.51 108 335.51 108 Z"/><circle cx="339.74" cy="82.8" r="26.5" fill="#F8CDBA" vector-effect="non-scaling-stroke"/><path fill="#1F161E" d="M 367.09 62 C 363.81 67.21 356.95 69.6 349.52 69.6 C 343.19 69.6 333.97 67.76 327.41 71.5 C 323.86 73.5 319.79 78.05 318.97 87.16 C 318.97 88.72 317.2 94.77 317.2 96.72 C 317.2 98.05 315.7 98.92 313.2 98.92 C 311.91 98.92 309.36 96.83 309.36 93.64 C 309.36 89.95 310.83 88.64 310.83 85.51 C 310.83 82.38 307 79.37 307 70.67 C 307 58.14 315 50.42 320.66 50.42 C 325.82 50.42 327.44 51.62 328.09 52.13 C 328.09 40.74 343.09 35.54 349.04 35.54 C 355.84 35.54 359.04 38.33 359.04 41.88 C 359.04 47.54 356.34 52.35 354.97 53.43 C 358.071 50.64 362.099 49.104 366.27 49.12 C 374.06 49.12 376.68 54.24 376.68 57.74 C 376.68 65.35 367.55 72.4 364.15 72.4 C 363.295 70.59 362.291 68.854 361.15 67.21"/><circle cx="319.79" cy="86.3" r="5.65" fill="#F8CDBA" vector-effect="non-scaling-stroke"/><ellipse cx="366.5" cy="85.38" fill="#FA9E9F" rx="4.38" ry="2.28" vector-effect="non-scaling-stroke"/><ellipse cx="338.95" cy="85.38" fill="#FA9E9F" rx="4.38" ry="2.28" vector-effect="non-scaling-stroke"/><mask id="_mask_WPWwvH5vXyz1s2uQo3O51DSfyKJ4SYAo" width="400%" height="400%" x="-200%" y="-200%"><rect width="400%" height="400%" x="-200%" y="-200%" style="fill:#fff"/><path fill="#000" stroke="none" d="M 355.8 80.65 C 356.62 81.82 360.8 86.73 356.39 88.72"/></mask><path fill="none" d="M 355.8 80.65 C 356.62 81.82 360.8 86.73 356.39 88.72"/><path fill="none" stroke="#1F161E" stroke-linecap="round" stroke-linejoin="miter" stroke-miterlimit="10" stroke-width="2" d="M 355.8 80.65 C 356.62 81.82 360.8 86.73 356.39 88.72" mask="url(#_mask_WPWwvH5vXyz1s2uQo3O51DSfyKJ4SYAo)" vector-effect="non-scaling-stroke"/><mask id="_mask_KvfHrQdTYMYImSG689pKzo46bi0ScjVF" width="400%" height="400%" x="-200%" y="-200%"><rect width="400%" height="400%" x="-200%" y="-200%" style="fill:#fff"/><path fill="#000" stroke="none" d="M 347.56 94.45 C 346.24 94.45 344.21 92.81 343.14 91.34"/></mask><path fill="none" d="M 347.56 94.45 C 346.24 94.45 344.21 92.81 343.14 91.34"/><path fill="none" stroke="#1F161E" stroke-linecap="round" stroke-linejoin="miter" stroke-miterlimit="10" stroke-width="2" d="M 347.56 94.45 C 346.24 94.45 344.21 92.81 343.14 91.34" mask="url(#_mask_KvfHrQdTYMYImSG689pKzo46bi0ScjVF)" vector-effect="non-scaling-stroke"/><mask id="_mask_QltMMO3RG7NV2iwaUQAdkUAQvXCpmHz6" width="400%" height="400%" x="-200%" y="-200%"><rect width="400%" height="400%" x="-200%" y="-200%" style="fill:#fff"/><path fill="#000" stroke="none" d="M 382.5 165.62 C 384.5 169.87 394.15 210.87 394.15 223.86"/></mask><path fill="none" d="M 382.5 165.62 C 384.5 169.87 394.15 210.87 394.15 223.86"/><path fill="none" stroke="#1F161E" stroke-linecap="round" stroke-linejoin="miter" stroke-miterlimit="10" stroke-width="2" d="M 382.5 165.62 C 384.5 169.87 394.15 210.87 394.15 223.86" mask="url(#_mask_QltMMO3RG7NV2iwaUQAdkUAQvXCpmHz6)" vector-effect="non-scaling-stroke"/><path fill="#F8CDBA" d="M 247.32 215.41 C 247.32 261.5 247.75 274.87 266.25 274.87 C 308.89 274.87 373.35 239.87 384.84 239.87 C 394.99 239.87 400.29 245.11 406.28 245.11 C 410.45 245.11 417.97 241.82 417.97 237.37 C 417.97 228.02 399.04 220.66 390.97 220.66 C 372.8 220.66 300.29 238.18 298.52 238.18 C 296.75 238.18 293.77 237.41 293.77 234.43 C 293.77 229.02 297.31 216.52 297.77 215.43 L 247.32 215.41 Z"/><mask id="_mask_mJEQH6RjD7MMd4Y8ljzRofgt5aqhbM4K" width="400%" height="400%" x="-200%" y="-200%"><rect width="400%" height="400%" x="-200%" y="-200%" style="fill:#fff"/><path fill="#000" stroke="none" d="M 308.42 175.21 C 307.2 178.72 297.69 214.99 296.59 219.41"/></mask><path fill="none" d="M 308.42 175.21 C 307.2 178.72 297.69 214.99 296.59 219.41"/><path fill="none" stroke="#1F161E" stroke-linecap="round" stroke-linejoin="miter" stroke-miterlimit="10" stroke-width="2" d="M 308.42 175.21 C 307.2 178.72 297.69 214.99 296.59 219.41" mask="url(#_mask_mJEQH6RjD7MMd4Y8ljzRofgt5aqhbM4K)" vector-effect="non-scaling-stroke"/><path d="M 675.711 459.401 L 675.711 459.401 C 672.978 460.119 670.176 458.484 669.457 455.751 L 618.259 261.003 C 617.541 258.27 619.176 255.468 621.909 254.749 L 621.909 254.749 C 624.642 254.031 627.444 255.666 628.163 258.399 L 679.361 453.147 C 680.079 455.88 678.444 458.682 675.711 459.401 Z" style="stroke:none;fill:#969696;stroke-miterlimit:10"/><path d="M 614.101 254.759 L 614.101 254.759 C 616.834 255.478 618.469 258.28 617.751 261.013 L 566.553 455.751 C 565.834 458.484 563.032 460.119 560.299 459.401 L 560.299 459.401 C 557.566 458.682 555.931 455.88 556.649 453.147 L 607.847 258.409 C 608.566 255.676 611.368 254.041 614.101 254.759 Z" style="stroke:none;fill:#969696;stroke-miterlimit:10"/><path d="M 543.451 254.759 L 543.451 254.759 C 546.184 255.478 547.819 258.28 547.101 261.013 L 495.903 455.751 C 495.184 458.484 492.382 460.119 489.649 459.401 L 489.649 459.401 C 486.916 458.682 485.281 455.88 485.999 453.147 L 537.197 258.409 C 537.916 255.676 540.718 254.041 543.451 254.759 Z" style="stroke:none;fill:#d8d8d8;stroke-miterlimit:10"/><path d="M 604.17 455.837 L 604.17 455.837 C 601.429 456.543 598.63 454.891 597.924 452.15 L 547.583 256.83 C 546.877 254.089 548.529 251.29 551.27 250.583 L 551.27 250.583 C 554.011 249.877 556.81 251.529 557.516 254.27 L 607.857 449.59 C 608.563 452.331 606.911 455.13 604.17 455.837 Z" style="stroke:none;fill:#d8d8d8;stroke-miterlimit:10"/><path d="M 255.031 254.759 L 255.031 254.759 C 257.764 255.478 259.399 258.28 258.681 261.013 L 207.483 455.761 C 206.764 458.494 203.962 460.129 201.229 459.411 L 201.229 459.411 C 198.496 458.692 196.861 455.89 197.579 453.157 L 248.777 258.409 C 249.496 255.676 252.298 254.041 255.031 254.759 Z" style="stroke:none;fill:#969696;stroke-miterlimit:10"/><path d="M 315.771 459.411 L 315.771 459.411 C 313.038 460.129 310.236 458.494 309.517 455.761 L 258.319 261.013 C 257.601 258.28 259.236 255.478 261.969 254.759 L 261.969 254.759 C 264.702 254.041 267.504 255.676 268.223 258.409 L 319.421 453.157 C 320.139 455.89 318.504 458.692 315.771 459.411 Z" style="stroke:none;fill:#969696;stroke-miterlimit:10"/><path d="M 154.1 245.14 L 649.27 245.14 C 651.77 245.14 653.8 247.17 653.8 249.67 L 653.8 255.76 C 653.8 258.26 651.77 260.29 649.27 260.29 L 154.1 260.29 C 151.6 260.29 149.57 258.26 149.57 255.76 L 149.57 249.67 C 149.57 247.17 151.6 245.14 154.1 245.14 Z" style="stroke:none;fill:#d8d8d8;stroke-miterlimit:10"/><path d="M 181.861 254.769 L 181.861 254.769 C 184.594 255.488 186.229 258.29 185.511 261.023 L 134.313 455.761 C 133.594 458.494 130.792 460.129 128.059 459.411 L 128.059 459.411 C 125.326 458.692 123.691 455.89 124.409 453.157 L 175.607 258.419 C 176.326 255.686 179.128 254.051 181.861 254.769 Z" style="stroke:none;fill:#d8d8d8;stroke-miterlimit:10"/><path d="M 242.601 459.411 L 242.601 459.411 C 239.868 460.129 237.066 458.494 236.347 455.761 L 185.149 261.013 C 184.431 258.28 186.066 255.478 188.799 254.759 L 188.799 254.759 C 191.532 254.041 194.334 255.676 195.053 258.409 L 246.251 453.157 C 246.969 455.89 245.334 458.692 242.601 459.411 Z" style="stroke:none;fill:#d8d8d8;stroke-miterlimit:10"/><path fill="#000" d="M 520.28 245.14 L 427.77 245.14 L 444.53 187.5 C 445.39 184.644 448.027 182.694 451.01 182.71 L 529.51 182.71 C 531.601 182.676 533.585 183.632 534.861 185.289 C 536.137 186.945 536.556 189.107 535.99 191.12 L 520.28 245.14 Z"/><circle cx="485.38" cy="213.92" r="5.66" fill="#FFF" vector-effect="non-scaling-stroke"/><rect width="64.91" height="4.05" x="373.85" y="241.09" fill="#000" transform="matrix(1,0,0,1,0,0)"/></g></g></svg>